<?xml version="1.0" encoding="UTF-8" standalone="no"?>
<!DOCTYPE svg PUBLIC "-//W3C//DTD SVG 1.1//EN" "http://www.w3.org/Graphics/SVG/1.1/DTD/svg11.dtd">
<svg width="100%" height="100%" viewBox="0 0 78 54" version="1.1" xmlns="http://www.w3.org/2000/svg" xmlns:xlink="http://www.w3.org/1999/xlink" xml:space="preserve" xmlns:serif="http://www.serif.com/" style="fill-rule:evenodd;clip-rule:evenodd;stroke-linejoin:round;stroke-miterlimit:1.41421;">
    <path d="M57,34.5L24,34.5L24,36.5L57,36.5L57,34.5ZM57,42.5L24,42.5L24,44.5L57,44.5L57,42.5ZM59.8,14.3L54.3,14.3C53.8,14.3 53.3,14.7 53.3,15.3L53.3,20.8C53.3,21.3 53.8,21.8 54.3,21.8L59.8,21.8C60.3,21.8 60.8,21.3 60.8,20.8L60.8,15.3C60.8,14.7 60.3,14.3 59.8,14.3ZM78,25.5L78,1.5C78,0.7 77.3,0 76.5,0L51,0L51,3L18,3L18,0L1.5,0C0.7,0 0,0.7 0,1.5L0,52.5C0,53.3 0.7,54 1.5,54L76.5,54C77.3,54 78,53.3 78,52.5L78,40.5L75,40.5L75,25.5L78,25.5ZM42,7.5C42.8,7.5 43.5,8.2 43.5,9C43.5,9.8 42.8,10.5 42,10.5C41.2,10.5 40.5,9.8 40.5,9C40.5,8.2 41.2,7.5 42,7.5ZM33,9C34.7,9 36,10.3 36,12C36,13.7 34.7,15 33,15C31.3,15 30,13.7 30,12C30,10.3 31.3,9 33,9ZM33,20.6C34.7,20.6 36,21.9 36,23.6C36,25.3 34.7,26.6 33,26.6C31.3,26.6 30,25.3 30,23.6C30,21.9 31.3,20.6 33,20.6ZM4.5,51C3.7,51 3,50.3 3,49.5C3,48.7 3.7,48 4.5,48C5.3,48 6,48.7 6,49.5C6,50.3 5.3,51 4.5,51ZM4.5,6C3.7,6 3,5.3 3,4.5C3,3.7 3.7,3 4.5,3C5.3,3 6,3.7 6,4.5C6,5.3 5.3,6 4.5,6ZM15.1,45.4C15.1,45.9 14.6,46.4 14.1,46.4L8.6,46.4C8.1,46.4 7.6,45.9 7.6,45.4L7.6,39.9C7.6,39.3 8.1,38.9 8.6,38.9L14.1,38.9C14.6,38.9 15.1,39.3 15.1,39.9L15.1,45.4ZM18,27L12,27L12,21L18,21L18,27ZM18,15L12,15L12,9L18,9L18,15ZM58.5,46L22.5,46L22.5,41L58.5,41L58.5,46ZM58.5,38L22.5,38L22.5,33L58.5,33L58.5,38ZM66,25.5C66,26.3 65.3,27 64.5,27L49.5,27C48.7,27 48,26.3 48,25.5L48,10.5C48,9.7 48.7,9 49.5,9L64.5,9C65.3,9 66,9.7 66,10.5L66,25.5ZM75,49.5C75,50.3 74.3,51 73.5,51C72.7,51 72,50.3 72,49.5C72,48.7 72.7,48 73.5,48C74.3,48 75,48.7 75,49.5ZM73.5,6C72.7,6 72,5.3 72,4.5C72,3.7 72.7,3 73.5,3C74.3,3 75,3.7 75,4.5C75,5.3 74.3,6 73.5,6Z" style="fill:rgb(86,86,86);fill-rule:nonzero;"/>
</svg>
