<?xml version="1.0" encoding="UTF-8" standalone="no"?>
<!DOCTYPE svg PUBLIC "-//W3C//DTD SVG 1.1//EN" "http://www.w3.org/Graphics/SVG/1.1/DTD/svg11.dtd">
<svg width="100%" height="100%" viewBox="0 0 78 78" version="1.1" xmlns="http://www.w3.org/2000/svg" xmlns:xlink="http://www.w3.org/1999/xlink" xml:space="preserve" xmlns:serif="http://www.serif.com/" style="fill-rule:evenodd;clip-rule:evenodd;stroke-linejoin:round;stroke-miterlimit:1.41421;">
    <path d="M49.5,25.5L28.5,25.5C26.9,25.5 25.5,26.9 25.5,28.5L25.5,49.5C25.5,51.2 26.9,52.5 28.5,52.5L49.5,52.5C51.1,52.5 52.5,51.2 52.5,49.5L52.5,28.5C52.5,26.9 51.2,25.5 49.5,25.5ZM57,10.5L21,10.5C15.2,10.5 10.5,15.2 10.5,21L10.5,57C10.5,62.8 15.2,67.5 21,67.5L57,67.5C62.8,67.5 67.5,62.8 67.5,57L67.5,21C67.5,15.2 62.8,10.5 57,10.5ZM61.5,57C61.5,59.5 59.5,61.5 57,61.5L21,61.5C18.5,61.5 16.5,59.5 16.5,57L16.5,21C16.5,18.5 18.5,16.5 21,16.5L57,16.5C59.5,16.5 61.5,18.5 61.5,21L61.5,57ZM39,6C40.7,6 42,4.7 42,3C42,1.3 40.7,0 39,0C37.3,0 36,1.3 36,3C36,4.7 37.3,6 39,6ZM25.5,6C27.2,6 28.5,4.7 28.5,3C28.5,1.3 27.2,0 25.5,0C23.8,0 22.5,1.3 22.5,3C22.5,4.7 23.8,6 25.5,6ZM52.5,6C54.2,6 55.5,4.7 55.5,3C55.5,1.3 54.2,0 52.5,0C50.8,0 49.5,1.3 49.5,3C49.5,4.7 50.8,6 52.5,6ZM39,72C37.3,72 36,73.3 36,75C36,76.7 37.3,78 39,78C40.7,78 42,76.7 42,75C42,73.3 40.7,72 39,72ZM25.5,72C23.8,72 22.5,73.3 22.5,75C22.5,76.7 23.8,78 25.5,78C27.2,78 28.5,76.7 28.5,75C28.5,73.3 27.2,72 25.5,72ZM52.5,72C50.8,72 49.5,73.3 49.5,75C49.5,76.7 50.8,78 52.5,78C54.2,78 55.5,76.7 55.5,75C55.5,73.3 54.2,72 52.5,72ZM75,36C73.3,36 72,37.3 72,39C72,40.7 73.3,42 75,42C76.7,42 78,40.7 78,39C78,37.3 76.7,36 75,36ZM75,28.5C76.7,28.5 78,27.2 78,25.5C78,23.8 76.7,22.5 75,22.5C73.3,22.5 72,23.8 72,25.5C72,27.2 73.3,28.5 75,28.5ZM75,49.5C73.3,49.5 72,50.8 72,52.5C72,54.2 73.3,55.5 75,55.5C76.7,55.5 78,54.2 78,52.5C78,50.8 76.7,49.5 75,49.5ZM3,36C1.3,36 0,37.3 0,39C0,40.7 1.3,42 3,42C4.7,42 6,40.7 6,39C6,37.3 4.7,36 3,36ZM3,22.5C1.3,22.5 0,23.8 0,25.5C0,27.2 1.3,28.5 3,28.5C4.7,28.5 6,27.2 6,25.5C6,23.8 4.7,22.5 3,22.5ZM3,49.5C1.3,49.5 0,50.8 0,52.5C0,54.2 1.3,55.5 3,55.5C4.7,55.5 6,54.2 6,52.5C6,50.8 4.7,49.5 3,49.5Z" style="fill:rgb(86,86,86);fill-rule:nonzero;"/>
</svg>